<?xml version="1.0" standalone="no"?>
<!DOCTYPE svg PUBLIC "-//W3C//DTD SVG 20010904//EN"
 "http://www.w3.org/TR/2001/REC-SVG-20010904/DTD/svg10.dtd">
<svg version="1.0" xmlns="http://www.w3.org/2000/svg"
 width="225.000000pt" height="225.000000pt" viewBox="0 0 225.000000 225.000000"
 preserveAspectRatio="xMidYMid meet">
<metadata>
Created by potrace 1.15, written by Peter Selinger 2001-2017
</metadata>
<g transform="translate(0.000000,225.000000) scale(0.100000,-0.100000)"
fill="#000000" stroke="none">
<path d="M953 2225 c-86 -20 -203 -67 -265 -106 -67 -43 -175 -133 -214 -179
-48 -55 -108 -169 -145 -271 -33 -92 -34 -97 -34 -254 0 -155 1 -163 33 -255
39 -110 99 -242 144 -315 62 -99 75 -121 114 -180 94 -145 322 -429 458 -570
l86 -90 51 55 c202 218 356 410 488 610 349 526 388 866 143 1225 -99 144
-282 270 -467 321 -82 23 -309 28 -392 9z m147 -305 l0 -60 70 0 70 0 0 61 c0
45 3 60 13 56 6 -2 36 -13 65 -23 50 -18 52 -20 52 -56 l0 -38 45 0 c25 0 57
-7 70 -16 21 -14 25 -24 25 -70 l0 -54 48 0 c47 0 48 -1 70 -45 12 -25 22 -53
22 -61 0 -9 9 -23 20 -32 15 -12 23 -33 27 -74 6 -56 5 -56 -22 -60 -27 -3
-28 -5 -29 -68 l-1 -65 -67 -3 -68 -3 0 -65 0 -66 69 4 69 3 -29 -56 c-35 -70
-53 -89 -85 -89 -21 0 -24 -5 -24 -35 0 -30 -5 -37 -39 -55 -22 -11 -42 -24
-46 -30 -3 -5 -17 -10 -31 -10 -13 0 -24 -6 -24 -13 0 -8 -20 -18 -47 -25 -27
-6 -56 -14 -65 -17 -15 -6 -18 -2 -18 24 l0 31 -70 0 -70 0 0 -35 c0 -40 -10
-43 -85 -23 -36 10 -45 16 -45 35 0 20 -5 22 -67 25 l-68 3 -3 63 -3 62 -64 0
-65 0 0 70 0 70 -50 0 c-54 0 -50 -6 -74 103 l-6 27 65 0 65 0 0 70 0 70 -71
0 -72 0 6 51 c9 70 28 89 89 89 l48 0 0 65 c0 51 -3 65 -15 65 -19 0 -19 9 0
34 14 19 15 19 15 -7 0 -27 1 -27 65 -27 l65 0 0 70 c0 66 -1 70 -22 70 -23 1
-23 1 -3 16 18 13 20 13 23 0 3 -13 18 -16 73 -16 l69 0 0 50 c0 46 2 50 28
56 15 3 32 7 37 9 6 2 22 4 38 4 27 1 27 0 27 -59z"/>
<path d="M970 1790 l0 -70 -70 0 -70 0 0 -65 0 -65 -65 0 -65 0 0 -70 0 -70
65 0 65 0 0 -70 0 -70 -65 0 -65 0 0 -65 0 -65 65 0 65 0 0 -70 0 -70 70 0 70
0 0 -65 0 -65 65 0 65 0 0 65 0 65 70 0 70 0 0 -65 0 -65 65 0 65 0 0 65 0 65
70 0 70 0 0 70 0 70 -70 0 -70 0 0 65 0 65 70 0 70 0 0 70 0 70 70 0 70 0 0
70 0 70 -70 0 -70 0 0 65 0 65 -70 0 -70 0 0 70 0 70 -65 0 -65 0 0 -70 0 -70
-70 0 -70 0 0 70 0 70 -65 0 -65 0 0 -70z m130 -135 l0 -65 70 0 70 0 0 65 0
65 65 0 65 0 0 -65 0 -65 70 0 70 0 0 -70 0 -70 -70 0 -70 0 0 -70 0 -70 -65
0 -65 0 0 -65 0 -65 65 0 65 0 0 -70 0 -70 -65 0 -65 0 0 70 0 70 -70 0 -70 0
0 -70 0 -70 -65 0 -65 0 0 70 0 70 -70 0 -70 0 0 65 0 65 70 0 70 0 0 70 0 70
-70 0 -70 0 0 70 0 70 70 0 70 0 0 65 0 65 65 0 65 0 0 -65z"/>
<path d="M970 1520 l0 -70 65 0 65 0 0 -70 0 -70 -65 0 -65 0 0 -65 0 -65 65
0 65 0 0 65 0 65 70 0 70 0 0 70 0 70 65 0 65 0 0 70 0 70 -65 0 -65 0 0 -70
0 -70 -70 0 -70 0 0 70 0 70 -65 0 -65 0 0 -70z"/>
</g>
</svg>
